<svg width="255" height="256" viewBox="0 0 255 256" fill="none" xmlns="http://www.w3.org/2000/svg">
<g clip-path="url(#clip0)">
<path d="M191.967 193.65L195.103 255.694H105.575L98.7127 227.167C98.7127 227.167 94.8355 233.685 71.6874 235.646C48.557 237.606 51.3743 209.362 51.3743 209.362C51.3743 209.362 35.9717 202.562 35.9717 197.475C35.9717 192.37 45.0861 185.799 45.0861 185.799C45.0861 185.799 35.2916 187.556 31.7324 183.432C28.2086 179.308 36.06 164.408 36.06 164.408C36.06 164.408 23.9781 164.099 16.8509 156.265C9.7413 148.432 39.2748 125.275 39.2748 110.349C22.565 28.4873 89.086 -8.97712 162.902 2.8133C236.736 14.5861 233.963 59.2484 238.308 80.5595C246.945 133.965 191.967 193.65 191.967 193.65Z" fill="#FAFDCB"/>
<path d="M214.229 101.924C214.229 90.1782 207.086 80.1005 196.907 75.7982C198.704 72.3233 199.726 68.3819 199.726 64.1996C199.726 50.2343 188.405 38.9134 174.44 38.9134C170.461 38.9134 166.698 39.8351 163.35 41.4721C160.374 30.8182 150.603 23 139 23C127.397 23 117.626 30.8182 114.65 41.4721C111.301 39.8347 107.539 38.9134 103.56 38.9134C89.5945 38.9134 78.2735 50.2343 78.2735 64.1996C78.2735 68.3819 79.295 72.3233 81.0928 75.7982C70.9137 80.1009 63.7704 90.1782 63.7704 101.924C63.7704 117.147 75.7719 129.551 90.8273 130.23C92.9263 137.833 101.032 143.5 110.719 143.5C116.209 143.5 121.189 141.677 124.859 138.716C128.53 141.677 133.51 143.5 139 143.5C144.49 143.5 149.47 141.677 153.14 138.716C156.811 141.677 161.791 143.5 167.281 143.5C176.968 143.5 185.073 137.833 187.172 130.23C202.228 129.551 214.229 117.147 214.229 101.924Z" fill="#FAD586"/>
<path d="M137.483 23.0502C137.172 23.0689 136.861 23.0912 136.553 23.1214C136.459 23.1306 136.365 23.1411 136.271 23.1513C135.94 23.187 135.611 23.2284 135.284 23.2769C135.222 23.2858 135.161 23.2947 135.1 23.3042C134.711 23.3649 134.323 23.4325 133.94 23.5106C133.94 23.5106 133.939 23.5109 133.938 23.5109C140.576 24.8608 146.791 29.4841 150.729 35.3116C153.517 39.4384 158.281 41.8173 163.25 41.4793C163.283 41.477 163.316 41.4747 163.349 41.4724C160.374 30.8182 150.603 23 139 23C138.593 23 138.189 23.0118 137.787 23.0308C137.685 23.0358 137.585 23.0443 137.483 23.0502Z" fill="#FAD586"/>
<path d="M196.907 75.7982C198.705 72.3233 199.726 68.3819 199.726 64.1996C199.726 50.2343 188.405 38.9134 174.44 38.9134C172.707 38.9134 171.015 39.0886 169.38 39.4213C180.919 41.7664 189.604 51.9685 189.604 64.1996C189.604 68.3819 188.582 72.3233 186.784 75.7982C196.963 80.1009 204.107 90.1782 204.107 101.924C204.107 117.147 192.105 129.551 177.05 130.23C175.33 136.461 169.573 141.39 162.219 142.966C163.838 143.314 165.533 143.5 167.281 143.5C176.968 143.5 185.074 137.832 187.173 130.229C202.228 129.551 214.229 117.147 214.229 101.924C214.229 90.1782 207.087 80.1005 196.907 75.7982Z" fill="#FAD586"/>
<path d="M120.894 134.528C118.613 138.396 109.163 142.721 105.658 142.967C106.044 143.049 106.434 143.121 106.829 143.186C106.86 143.191 106.892 143.197 106.923 143.201C107.323 143.265 107.726 143.319 108.134 143.363C108.144 143.364 108.155 143.365 108.165 143.366C108.532 143.405 108.902 143.432 109.274 143.454C109.365 143.46 109.456 143.465 109.547 143.47C109.935 143.488 110.325 143.501 110.719 143.501C115.726 143.501 120.306 141.981 123.858 139.467L124.481 139.015L121.309 133.811L120.894 134.528Z" fill="#FAD586"/>
<path d="M151.643 140.985L162.477 123.89C163.334 122.538 163.074 120.762 161.866 119.711C160.577 118.59 158.637 118.663 157.435 119.879L149.457 127.956C148.399 129.028 146.586 128.137 146.788 126.645L149.134 109.262C149.384 107.405 148.011 105.723 146.141 105.597L143.943 105.448C142.292 105.337 140.822 106.488 140.534 108.119L136.347 131.912C136.114 133.235 134.433 133.672 133.586 132.63L120.47 116.499C119.562 115.383 118.027 114.999 116.701 115.557L114.405 116.522C112.587 117.286 111.868 119.484 112.882 121.175L126.36 143.64C128.312 146.894 129.117 150.711 128.629 154.473C126.882 167.945 124.712 180.65 115.833 191H162.165C152.66 179.921 150.316 166.142 149.057 151.614C148.736 147.882 149.639 144.147 151.643 140.985Z" fill="#FAD586"/>
<path d="M162.477 123.89C163.334 122.538 163.075 120.762 161.867 119.711C160.577 118.59 158.637 118.663 157.436 119.879L153.872 123.486L149.457 127.956C148.399 129.027 146.586 128.137 146.788 126.645L149.134 109.262C149.378 107.452 148.078 105.812 146.281 105.613L139.684 146.617C139.573 147.147 139.486 147.681 139.426 148.22C139.3 149.34 139.284 150.477 139.382 151.613C140.64 166.142 142.985 179.92 152.49 191H162.166C152.661 179.92 150.316 166.142 149.058 151.613C148.735 147.882 149.639 144.148 151.643 140.985L162.477 123.89Z" fill="#FAD586"/>
<path d="M134.187 42.8515C127.093 42.8515 120.986 47.062 118.218 53.1185C115.358 51.0976 111.87 49.9062 108.101 49.9062C98.4063 49.9062 90.5467 57.7658 90.5467 67.4609C90.5467 70.6597 91.4067 73.6562 92.9017 76.2388C84.4833 77.5333 78.0363 84.8078 78.0363 93.5884C78.0363 103.283 85.8959 111.143 95.591 111.143C105.286 111.143 151.742 70.1013 151.742 60.4062C151.742 50.7111 143.883 42.8515 134.187 42.8515Z" fill="#FAD586"/>
</g>
<defs>
<clipPath id="clip0">
<rect width="255" height="255" fill="white" transform="matrix(-1 0 0 1 255 0.693665)"/>
</clipPath>
</defs>
</svg>
